<?xml version="1.0" encoding="utf-8"?>
<svg width="16px" height="16px" viewBox="0 0 16 16" version="1.1" xmlns:xlink="http://www.w3.org/1999/xlink" xmlns="http://www.w3.org/2000/svg">
  <path d="M14 0C15.1047 0 16 0.89528 16 2L16 14C16 15.1047 15.1047 16 14 16L2 16C0.89528 16 0 15.1047 0 14L0 2C0 0.89528 0.89528 0 2 0L14 0Z" id="Rectangle" fill="#EFE6FF" stroke="none" />
  <path d="M8 4C10.2094 4 12 5.79056 12 8L12 9C12 11.2094 10.2094 13 8 13L8 13C5.79056 13 4 11.2094 4 9L4 8C4 5.79056 5.79056 4 8 4Z" id="Rectangle" fill="#2EDBB1" stroke="none" />
  <path d="M8.25259 4.66753C8.25259 4.66753 8.72843 1.28174 8.72843 1.28174C9.5087 1.3914 10.2597 1.65367 10.9386 2.05358C11.6175 2.45348 12.211 2.98319 12.6852 3.61247C13.1594 4.24173 13.505 4.95824 13.7023 5.72108C13.8996 6.48391 13.9447 7.27813 13.835 8.05839C13.835 8.05839 10.4492 7.58255 10.4492 7.58255C10.4964 7.24691 10.477 6.90527 10.3921 6.57714C10.3073 6.249 10.1586 5.94079 9.95463 5.6701C9.75065 5.39942 9.49536 5.17156 9.20332 4.99953C8.91129 4.82751 8.58823 4.7147 8.25259 4.66753Z" id="Oval" fill="#DB582E" fill-rule="evenodd" stroke="none" />
  <path d="M10.5809 8C10.5809 8 14 8 14 8C14 9.18669 13.6481 10.3467 12.9888 11.3334C12.3295 12.3201 11.3925 13.0892 10.2961 13.5433C9.19975 13.9974 7.99334 14.1162 6.82946 13.8847C5.66557 13.6532 4.59647 13.0818 3.75736 12.2426C2.91824 11.4035 2.3468 10.3344 2.11529 9.17054C1.88378 8.00666 2.0026 6.80025 2.45672 5.7039C2.91085 4.60754 3.67988 3.67047 4.66658 3.01118C5.65327 2.35189 6.81331 2 8 2C8 2 8 5.41906 8 5.41906C7.48954 5.41906 6.99054 5.57043 6.5661 5.85402C6.14167 6.13762 5.81086 6.54071 5.61552 7.01231C5.42017 7.48392 5.36906 8.00286 5.46865 8.50352C5.56824 9.00417 5.81404 9.46405 6.175 9.825C6.53595 10.186 6.99583 10.4318 7.49648 10.5314C7.99714 10.6309 8.51608 10.5798 8.98769 10.3845C9.45929 10.1891 9.86238 9.85833 10.146 9.4339C10.4296 9.00946 10.5809 8.51046 10.5809 8Z" id="Oval" fill="#865849" fill-rule="evenodd" stroke="none" />
  <path d="M3 12L13 12" id="Line" fill="none" fill-rule="evenodd" stroke="#EFE6FF" stroke-width="1" stroke-linecap="square" />
</svg>